<?xml version="1.0" encoding="UTF-8"?>
<svg version="1.1" xmlns="http://www.w3.org/2000/svg" width="186" height="256">
<path d="M0 0 C6.76714506 10.00559823 9.50352078 22.99394439 8 35 C6.984375 37.27734375 6.984375 37.27734375 6 39 C5.34 39 4.68 39 4 39 C3.7834375 39.71542969 3.566875 40.43085937 3.34375 41.16796875 C1.64619075 44.74567356 -0.54699802 46.68976798 -3.5 49.3125 C-4.4796875 50.19550781 -5.459375 51.07851563 -6.46875 51.98828125 C-9 54 -9 54 -11 54 C-11 54.66 -11 55.32 -11 56 C-22.39563632 65.62567579 -38.85027324 73 -54 73 C-53.89171875 73.93005859 -53.89171875 73.93005859 -53.78125 74.87890625 C-52.37528121 88.29419183 -50.99504932 102.90053973 -58 115 C-58.66 115 -59.32 115 -60 115 C-60 115.66 -60 116.32 -60 117 C-62.1875 118.5078125 -62.1875 118.5078125 -65 120.125 C-65.928125 120.66382813 -66.85625 121.20265625 -67.8125 121.7578125 C-68.534375 122.16773438 -69.25625 122.57765625 -70 123 C-68.52634188 127.57609626 -67.5889359 130.14773196 -63.26171875 132.46875 C-59.86680843 133.73726739 -56.44482951 134.87476583 -53 136 C-49.97205465 137.21041447 -46.97635749 138.48344199 -43.9765625 139.76171875 C-41.96732347 140.59758328 -39.94003521 141.3911457 -37.8984375 142.14453125 C-27.87056197 145.93989174 -21.10830368 151.04786798 -16.23828125 160.6875 C-13.35877292 166.06500452 -10.1932859 171.00305186 -4.5625 173.5625 C-3.716875 173.706875 -2.87125 173.85125 -2 174 C-2 174.66 -2 175.32 -2 176 C-12.12408236 175.84786215 -19.89567699 174.72119183 -29 170 C-29.5873291 169.7014209 -30.1746582 169.4028418 -30.77978516 169.09521484 C-40.68311786 164.00481367 -47.12034933 159.22402998 -52 149 C-53.45833358 147.37485532 -53.45833358 147.37485532 -55 146 C-58 142.33333333 -58 142.33333333 -58 140 C-58.7734375 139.6596875 -58.7734375 139.6596875 -59.5625 139.3125 C-62.92403127 137.5024447 -65.92911144 135.26003596 -69 133 C-67.57802332 135.95127234 -65.97566893 138.71666301 -64.25 141.5 C-61.98250966 145.2298573 -60.00046583 148.99697206 -58.125 152.9375 C-54.70887128 159.91321691 -50.19862375 165.88287976 -45.44921875 171.99609375 C-39.62388123 179.71165878 -39.68341058 186.91638235 -39.75 196.25 C-39.74226562 197.31863281 -39.73453125 198.38726562 -39.7265625 199.48828125 C-39.75264158 210.21982441 -41.24084725 219.36838134 -46 229 C-46.5878125 230.5778125 -46.5878125 230.5778125 -47.1875 232.1875 C-50.17175977 236.81824792 -54.80453311 240.10946005 -60.14453125 241.59765625 C-62.0625 241.875 -62.0625 241.875 -65 242 C-64.3673112 236.54305913 -62.53964096 231.86245443 -60.5 226.8125 C-59.86408196 225.21504325 -59.22864509 223.61739484 -58.59375 222.01953125 C-58.31208984 221.31932861 -58.03042969 220.61912598 -57.74023438 219.89770508 C-53.11956979 208.05191819 -57.32807872 196.80530494 -61.90234375 185.69140625 C-63.12797027 182.68622236 -64.28407979 179.65860363 -65.4375 176.625 C-69.74137651 165.36381676 -69.74137651 165.36381676 -74.8125 154.4375 C-76 152 -76 152 -76 149 C-76.66 149 -77.32 149 -78 149 C-79.65 145.7 -81.3 142.4 -83 139 C-84.60339911 142.20679822 -84.34874134 145.51258662 -84 149 C-82.65195113 153.04414662 -81.0858125 155.91100853 -78.3125 159.0625 C-74.46837606 164.36715735 -75.10237517 170.77964198 -76 177 C-76.87427422 181.31377388 -77.95161648 185.56786063 -79.13232422 189.80737305 C-80.2443242 193.80455131 -81.13449519 197.59515437 -81.50390625 201.734375 C-82.52183678 212.49148827 -89.65268073 220.62469094 -97 228 C-97.54269531 228.58652344 -98.08539063 229.17304688 -98.64453125 229.77734375 C-100 231 -100 231 -102 231 C-102.33 231.99 -102.66 232.98 -103 234 C-108.52652998 238.65643616 -114.63025737 242.60280393 -121 246 C-120.67 243.69 -120.34 241.38 -120 239 C-119.34 239 -118.68 239 -118 239 C-117.90074219 238.278125 -117.80148438 237.55625 -117.69921875 236.8125 C-116.90821681 233.6308162 -115.67100172 231.69134024 -113.8125 229 C-107.83645465 219.84650723 -103.92744842 210.29774447 -100.82373047 199.87670898 C-99.28961988 194.76444231 -97.37531715 189.9146279 -95.26953125 185.0078125 C-89.72677575 172.90993159 -89.72677575 172.90993159 -89 160 C-91.32078711 154.08429366 -91.32078711 154.08429366 -95 149 C-95.226875 149.7425 -95.45375 150.485 -95.6875 151.25 C-97 154 -97 154 -99.625 155.8125 C-102.1582134 157.68728081 -102.1582134 157.68728081 -102.2890625 159.921875 C-102.25205531 161.94986894 -102.12852416 163.97574446 -102 166 C-103 169 -103 169 -105 170 C-105.33 170.99 -105.66 171.98 -106 173 C-107.4375 174.6875 -107.4375 174.6875 -109 176 C-109.66 176 -110.32 176 -111 176 C-111.17789063 177.25490234 -111.17789063 177.25490234 -111.359375 178.53515625 C-114.13132102 193.52732774 -121.74224779 206.5337009 -129.48095703 219.46142578 C-130.46437686 221.10488437 -131.43019069 222.75906115 -132.37451172 224.42529297 C-132.79619629 225.14990723 -133.21788086 225.87452148 -133.65234375 226.62109375 C-134.01191162 227.25329834 -134.37147949 227.88550293 -134.74194336 228.53686523 C-136.34300591 230.39891993 -137.61646988 230.62854484 -140 231 C-139.06483756 226.22028084 -137.52519237 223.11859586 -134.625 219.1875 C-129.37964373 212.00103475 -127.06668221 204.54228648 -125 196 C-124.525625 194.845 -124.05125 193.69 -123.5625 192.5 C-119.60401257 182.24024685 -118.44244787 170.90324166 -119 160 C-121.13469817 166.73338305 -123.11227938 173.43992238 -124.75 180.3125 C-127.87984472 192.19363605 -133.7845509 204.76317074 -142 214 C-142.66 214 -143.32 214 -144 214 C-144.2475 214.58265625 -144.495 215.1653125 -144.75 215.765625 C-146.18525446 218.33114236 -147.77663013 219.83724798 -150 221.75 C-151.051875 222.67039063 -151.051875 222.67039063 -152.125 223.609375 C-154 225 -154 225 -156 225 C-156 225.66 -156 226.32 -156 227 C-160.06946059 230.01927721 -165.04622651 231.97202554 -170 233 C-172.27734375 232.578125 -172.27734375 232.578125 -174 232 C-173.43152344 231.443125 -172.86304688 230.88625 -172.27734375 230.3125 C-163.50620505 221.69601205 -163.50620505 221.69601205 -156 212 C-155.34 212 -154.68 212 -154 212 C-153.731875 211.46375 -153.46375 210.9275 -153.1875 210.375 C-152.32203909 208.64407819 -151.40743488 206.93747269 -150.46484375 205.24731445 C-148.91672193 201.81538639 -148.54532582 199.40701263 -148.375 195.66796875 C-148.31006348 194.46495117 -148.24512695 193.26193359 -148.17822266 192.02246094 C-148.11940918 190.75692383 -148.0605957 189.49138672 -148 188.1875 C-146.93714091 169.93533137 -145.98105841 153.57793807 -134 139 C-133.45601562 138.32195312 -132.91203125 137.64390625 -132.3515625 136.9453125 C-129.35674947 133.30771034 -129.35674947 133.30771034 -128 132 C-127.34 132 -126.68 132 -126 132 C-126 131.34 -126 130.68 -126 130 C-124.33784732 128.66104368 -122.67036393 127.32869858 -121 126 C-120.278125 125.0925 -119.55625 124.185 -118.8125 123.25 C-117.9153125 122.13625 -117.9153125 122.13625 -117 121 C-116.34 121 -115.68 121 -115 121 C-115 120.01 -115 119.02 -115 118 C-115.99 118 -116.98 118 -118 118 C-118 118.66 -118 119.32 -118 120 C-119.6171875 121.19140625 -119.6171875 121.19140625 -121.875 122.5625 C-128.59172154 126.88493279 -134.40016684 132.2631233 -139.9375 138 C-142 140 -142 140 -145 141 C-146.03038956 143.56042066 -146.03038956 143.56042066 -146.6875 146.5625 C-146.93886719 147.57441406 -147.19023437 148.58632812 -147.44921875 149.62890625 C-147.63097656 150.41136719 -147.81273437 151.19382813 -148 152 C-148.66 152 -149.32 152 -150 152 C-150.2165625 153.2065625 -150.2165625 153.2065625 -150.4375 154.4375 C-151 157 -151 157 -152 158 C-152.32967388 160.60442364 -152.61328326 163.20117944 -152.875 165.8125 C-154.79511592 183.03421388 -159.72473252 198.42531894 -172.75 210.5625 C-175 212 -175 212 -178 212 C-177.87882813 211.36835938 -177.75765625 210.73671875 -177.6328125 210.0859375 C-175.82134117 200.4154675 -174.08168193 190.77031385 -173.76049805 180.92260742 C-173.39889793 170.47006615 -170.9837624 160.98839859 -168 151 C-167.67128906 149.87078125 -167.34257812 148.7415625 -167.00390625 147.578125 C-166.35494126 145.37971728 -165.68166096 143.18849044 -165 141 C-164.34 141 -163.68 141 -163 141 C-162.773125 140.319375 -162.54625 139.63875 -162.3125 138.9375 C-160.68773854 135.3011291 -158.67196743 131.97170737 -156 129 C-155.34 129 -154.68 129 -154 129 C-154 128.34 -154 127.68 -154 127 C-143.93823574 119.09849848 -133.07512963 115.87574328 -120.66162109 114.03808594 C-116.38877161 113.48398586 -116.38877161 113.48398586 -113 111 C-113.16371094 110.25234375 -113.32742187 109.5046875 -113.49609375 108.734375 C-114.13375689 105.27418743 -113.31865542 103.51515818 -112.0625 100.25 C-110.24904622 94.72778136 -109.58189906 89.82214227 -109.5625 84.0625 C-109.5529126 83.35319336 -109.5433252 82.64388672 -109.53344727 81.91308594 C-109.60802324 77.23965844 -110.52988076 73.96060481 -113 70 C-115.0335948 68.73195434 -115.0335948 68.73195434 -117 68 C-118.66479104 64.67041792 -118.18459065 60.96955686 -118.1875 57.3125 C-118.20586914 56.12624023 -118.20586914 56.12624023 -118.22460938 54.91601562 C-118.2369976 49.91530393 -117.60501139 45.78697453 -116 41 C-115.67902344 39.91460937 -115.35804687 38.82921875 -115.02734375 37.7109375 C-112.09659515 28.74011562 -108.10386755 21.2191125 -102 14 C-101.34 14 -100.68 14 -100 14 C-99.505 12.515 -99.505 12.515 -99 11 C-98.34 11 -97.68 11 -97 11 C-97 10.34 -97 9.68 -97 9 C-95.02053408 7.63636792 -93.0180755 6.30581356 -91 5 C-90.57460937 4.52433594 -90.14921875 4.04867188 -89.7109375 3.55859375 C-70.81198332 -13.65757684 -19.2058951 -17.33439414 0 0 Z M-118 155 C-117 157 -117 157 -117 157 Z " fill="#C566DC" transform="translate(178,10)"/>
<path d="M0 0 C0.33 0 0.66 0 1 0 C3.19958449 18.46079839 3.19958449 18.46079839 0 24 C-0.66 24 -1.32 24 -2 24 C-2.2165625 24.71542969 -2.433125 25.43085937 -2.65625 26.16796875 C-4.35380925 29.74567356 -6.54699802 31.68976798 -9.5 34.3125 C-10.96953125 35.63701172 -10.96953125 35.63701172 -12.46875 36.98828125 C-15 39 -15 39 -17 39 C-17 39.66 -17 40.32 -17 41 C-28.39563632 50.62567579 -44.85027324 58 -60 58 C-59.9278125 58.62003906 -59.855625 59.24007812 -59.78125 59.87890625 C-58.37528121 73.29419183 -56.99504932 87.90053973 -64 100 C-64.66 100 -65.32 100 -66 100 C-66 100.66 -66 101.32 -66 102 C-68.1875 103.5078125 -68.1875 103.5078125 -71 105.125 C-71.928125 105.66382813 -72.85625 106.20265625 -73.8125 106.7578125 C-74.534375 107.16773438 -75.25625 107.57765625 -76 108 C-74.52634188 112.57609626 -73.5889359 115.14773196 -69.26171875 117.46875 C-65.86680843 118.73726739 -62.44482951 119.87476583 -59 121 C-55.97205465 122.21041447 -52.97635749 123.48344199 -49.9765625 124.76171875 C-47.96732347 125.59758328 -45.94003521 126.3911457 -43.8984375 127.14453125 C-33.87056197 130.93989174 -27.10830368 136.04786798 -22.23828125 145.6875 C-19.35877292 151.06500452 -16.1932859 156.00305186 -10.5625 158.5625 C-9.716875 158.706875 -8.87125 158.85125 -8 159 C-8 159.66 -8 160.32 -8 161 C-18.12408236 160.84786215 -25.89567699 159.72119183 -35 155 C-35.5873291 154.7014209 -36.1746582 154.4028418 -36.77978516 154.09521484 C-46.68311786 149.00481367 -53.12034933 144.22402998 -58 134 C-59.45833358 132.37485532 -59.45833358 132.37485532 -61 131 C-64 127.33333333 -64 127.33333333 -64 125 C-64.515625 124.773125 -65.03125 124.54625 -65.5625 124.3125 C-68.92403127 122.5024447 -71.92911144 120.26003596 -75 118 C-73.57802332 120.95127234 -71.97566893 123.71666301 -70.25 126.5 C-67.98250966 130.2298573 -66.00046583 133.99697206 -64.125 137.9375 C-60.70887128 144.91321691 -56.19862375 150.88287976 -51.44921875 156.99609375 C-45.62388123 164.71165878 -45.68341058 171.91638235 -45.75 181.25 C-45.73839844 182.85294922 -45.73839844 182.85294922 -45.7265625 184.48828125 C-45.75264158 195.21982441 -47.24084725 204.36838134 -52 214 C-52.5878125 215.5778125 -52.5878125 215.5778125 -53.1875 217.1875 C-56.17175977 221.81824792 -60.80453311 225.10946005 -66.14453125 226.59765625 C-68.0625 226.875 -68.0625 226.875 -71 227 C-70.505 225.02 -70.505 225.02 -70 223 C-70 223.66 -70 224.32 -70 225 C-64.48849477 223.67723875 -59.19077852 222.26396395 -55.84375 217.27734375 C-49.79362007 205.75001287 -48.7832465 194.46779761 -48.6875 181.625 C-48.65849609 180.3359375 -48.62949219 179.046875 -48.59960938 177.71875 C-48.52629845 166.73338917 -50.78864155 161.3358942 -57.75 153 C-62.12327256 147.57791891 -65.24310985 141.96127744 -68.23242188 135.68847656 C-71.48008995 128.88431308 -75.09616754 121.88593031 -81 117 C-81.99 116.67 -82.98 116.34 -84 116 C-84 115.34 -84 114.68 -84 114 C-81.36 114 -78.72 114 -76 114 C-77.15173355 111.53199953 -78.04783565 109.95216435 -80 108 C-76.92422847 105.42032065 -73.76266961 103.20120822 -70.375 101.0625 C-66.88784956 98.75124912 -64.59588632 96.98971581 -63 93 C-61.6449874 86.27108295 -61.81595311 79.58716233 -61.8125 72.75 C-61.80025391 71.45835938 -61.78800781 70.16671875 -61.77539062 68.8359375 C-61.77345703 67.60617188 -61.77152344 66.37640625 -61.76953125 65.109375 C-61.76542236 63.98499023 -61.76131348 62.86060547 -61.75708008 61.70214844 C-61.722473 58.85022439 -61.722473 58.85022439 -64 57 C-63.30551758 56.84966309 -62.61103516 56.69932617 -61.89550781 56.54443359 C-43.57273129 52.52169325 -30.26050284 48.61345646 -16 36 C-15.09765625 35.23042969 -14.1953125 34.46085937 -13.265625 33.66796875 C-4.02144042 25.92329723 -4.02144042 25.92329723 -0.29296875 14.94140625 C-0.23388063 13.14906658 -0.1991195 11.35577574 -0.1875 9.5625 C-0.16236328 8.64017578 -0.13722656 7.71785156 -0.11132812 6.76757812 C-0.05287504 4.51128904 -0.016292 2.25692068 0 0 Z " fill="#887F86" transform="translate(184,25)"/>
<path d="M0 0 C-2.77280706 3.08089673 -5.06326356 4.68775452 -9 6 C-9 6.66 -9 7.32 -9 8 C-10.6785513 9.49629179 -12.41958898 10.92292661 -14.1875 12.3125 C-20.94488152 17.64060939 -26.93706319 22.68164404 -30 30.875 C-31.04844633 33.66211983 -32.11168515 36.20075405 -33.5625 38.80859375 C-35.26387612 42.58583367 -35.66615891 46.11509606 -36 50.1875 C-37.06836388 60.79482708 -39.75257499 70.21544603 -44 80 C-44.474375 81.11375 -44.94875 82.2275 -45.4375 83.375 C-48.02802176 87.72707655 -51.5442927 89.84309711 -56 92 C-55.68839539 89.79154015 -55.37567654 87.58323749 -55.0625 85.375 C-54.88847656 84.14523438 -54.71445312 82.91546875 -54.53515625 81.6484375 C-54.21595019 79.47224433 -53.86417889 77.29985175 -53.4453125 75.140625 C-52.96265869 71.73664553 -52.90633503 68.45393888 -52.86279297 65.02148438 C-52.5159357 46.76938341 -47.58906147 26.3456507 -34.79296875 12.5546875 C-24.23092685 3.39631566 -13.720737 -0.23977987 0 0 Z " fill="#C466DB" transform="translate(59,127)"/>
<path d="M0 0 C2.80105457 2.56058248 4.17165509 4.90777253 5.83203125 8.30859375 C6.35539063 9.35144531 6.87875 10.39429688 7.41796875 11.46875 C8.45703125 14.24609375 8.45703125 14.24609375 7.45703125 17.24609375 C7.10511719 16.44945313 6.75320312 15.6528125 6.390625 14.83203125 C2.29148935 6.03440853 -1.22990382 0.77954852 -10.34375 -2.87890625 C-17.37680668 -5.35109697 -24.15267811 -5.35786697 -31.54296875 -5.25390625 C-32.22350311 -5.24869965 -32.90403748 -5.24349304 -33.60519409 -5.23812866 C-44.9544247 -5.1364888 -55.64392391 -4.0249636 -66.54296875 -0.75390625 C-67.18991699 -0.5719873 -67.83686523 -0.39006836 -68.50341797 -0.20263672 C-85.31928137 4.60619312 -97.06525705 15.25798623 -105.54296875 30.24609375 C-112.17225845 42.77007618 -114.05834446 54.27368552 -113.54296875 68.24609375 C-112.96546875 68.45234375 -112.38796875 68.65859375 -111.79296875 68.87109375 C-108.5551355 70.84976962 -107.31311123 72.89314568 -105.54296875 76.24609375 C-104.88248631 79.18259164 -104.70535488 82.05543438 -104.60546875 85.05859375 C-104.56881104 85.86031006 -104.53215332 86.66202637 -104.49438477 87.48803711 C-104.34917959 92.56505076 -104.8127784 96.61028227 -106.84765625 101.3125 C-107.66352021 103.58133517 -107.67940406 105.34319624 -107.60546875 107.74609375 C-107.34046144 117.28635674 -110.00028282 123.28005756 -116.54296875 130.24609375 C-118.50527685 132.058343 -120.51685258 133.78667032 -122.5625 135.50390625 C-137.82436302 148.92952934 -140.88816616 165.63804747 -142.16796875 184.99609375 C-143.73794046 207.37764828 -143.73794046 207.37764828 -145.54296875 212.24609375 C-148.41796875 214.55859375 -148.41796875 214.55859375 -151.54296875 216.24609375 C-153.79590601 218.81193897 -155.64902285 221.4051749 -157.54296875 224.24609375 C-158.53296875 224.24609375 -159.52296875 224.24609375 -160.54296875 224.24609375 C-160.81109375 224.84421875 -161.07921875 225.44234375 -161.35546875 226.05859375 C-162.52790342 228.21834183 -163.73666157 229.60399631 -165.54296875 231.24609375 C-162.90296875 230.91609375 -160.26296875 230.58609375 -157.54296875 230.24609375 C-158.88231119 232.92477862 -160.05989272 232.99563453 -162.85546875 233.93359375 C-163.63535156 234.20558594 -164.41523438 234.47757813 -165.21875 234.7578125 C-167.72571386 235.28448558 -169.14429218 235.06394915 -171.54296875 234.24609375 C-170.97449219 233.68921875 -170.40601563 233.13234375 -169.8203125 232.55859375 C-161.0491738 223.9421058 -161.0491738 223.9421058 -153.54296875 214.24609375 C-152.88296875 214.24609375 -152.22296875 214.24609375 -151.54296875 214.24609375 C-151.27484375 213.70984375 -151.00671875 213.17359375 -150.73046875 212.62109375 C-149.86500784 210.89017194 -148.95040363 209.18356644 -148.0078125 207.4934082 C-146.45969068 204.06148014 -146.08829457 201.65310638 -145.91796875 197.9140625 C-145.85303223 196.71104492 -145.7880957 195.50802734 -145.72119141 194.26855469 C-145.66237793 193.00301758 -145.60356445 191.73748047 -145.54296875 190.43359375 C-144.48010966 172.18142512 -143.52402716 155.82403182 -131.54296875 141.24609375 C-130.99898437 140.56804687 -130.455 139.89 -129.89453125 139.19140625 C-126.89971822 135.55380409 -126.89971822 135.55380409 -125.54296875 134.24609375 C-124.88296875 134.24609375 -124.22296875 134.24609375 -123.54296875 134.24609375 C-123.54296875 133.58609375 -123.54296875 132.92609375 -123.54296875 132.24609375 C-121.88081607 130.90713743 -120.21333268 129.57479233 -118.54296875 128.24609375 C-117.82109375 127.33859375 -117.09921875 126.43109375 -116.35546875 125.49609375 C-115.45828125 124.38234375 -115.45828125 124.38234375 -114.54296875 123.24609375 C-113.88296875 123.24609375 -113.22296875 123.24609375 -112.54296875 123.24609375 C-112.54296875 122.25609375 -112.54296875 121.26609375 -112.54296875 120.24609375 C-113.53296875 120.24609375 -114.52296875 120.24609375 -115.54296875 120.24609375 C-115.54296875 120.90609375 -115.54296875 121.56609375 -115.54296875 122.24609375 C-117.16015625 123.4375 -117.16015625 123.4375 -119.41796875 124.80859375 C-126.13469029 129.13102654 -131.94313559 134.50921705 -137.48046875 140.24609375 C-139.54296875 142.24609375 -139.54296875 142.24609375 -142.54296875 143.24609375 C-143.57335831 145.80651441 -143.57335831 145.80651441 -144.23046875 148.80859375 C-144.48183594 149.82050781 -144.73320312 150.83242187 -144.9921875 151.875 C-145.17394531 152.65746094 -145.35570312 153.43992188 -145.54296875 154.24609375 C-146.20296875 154.24609375 -146.86296875 154.24609375 -147.54296875 154.24609375 C-147.75953125 155.45265625 -147.75953125 155.45265625 -147.98046875 156.68359375 C-148.54296875 159.24609375 -148.54296875 159.24609375 -149.54296875 160.24609375 C-149.87264263 162.85051739 -150.15625201 165.44727319 -150.41796875 168.05859375 C-151.75783714 180.07600881 -154.15647861 190.76798041 -160.54296875 201.24609375 C-161.20296875 201.57609375 -161.86296875 201.90609375 -162.54296875 202.24609375 C-161.58930679 199.83438862 -160.62637116 197.43484657 -159.578125 195.0625 C-155.7221602 186.127192 -153.61227676 176.84447105 -153.23046875 167.12109375 C-152.79984927 160.25866847 -149.80218174 155.17115378 -146.54296875 149.24609375 C-146.00069886 147.96327907 -145.47543777 146.67289089 -144.98046875 145.37109375 C-142.10252174 139.11468722 -137.91957947 135.53152117 -132.41015625 131.640625 C-130.50170698 130.29332556 -130.50170698 130.29332556 -128.92578125 128.5703125 C-127.54296875 127.24609375 -127.54296875 127.24609375 -125.54296875 127.24609375 C-125.54296875 126.58609375 -125.54296875 125.92609375 -125.54296875 125.24609375 C-123.79296875 123.95703125 -123.79296875 123.95703125 -121.54296875 122.62109375 C-120.80046875 122.17507812 -120.05796875 121.7290625 -119.29296875 121.26953125 C-118.42671875 120.76292969 -118.42671875 120.76292969 -117.54296875 120.24609375 C-129.8718621 119.64953439 -139.92717837 123.53245661 -149.29296875 131.62109375 C-162.0443232 146.49767394 -167.77808789 163.83136374 -168.22924805 183.26000977 C-168.46310153 192.41068804 -169.90904098 201.2543529 -171.54296875 210.24609375 C-169.56296875 209.25609375 -169.56296875 209.25609375 -167.54296875 208.24609375 C-167.54296875 208.90609375 -167.54296875 209.56609375 -167.54296875 210.24609375 C-171.89590993 214.24609375 -171.89590993 214.24609375 -175.54296875 214.24609375 C-175.42179688 213.61445313 -175.300625 212.9828125 -175.17578125 212.33203125 C-173.36430992 202.66156125 -171.62465068 193.0164076 -171.3034668 183.16870117 C-170.94186668 172.7161599 -168.52673115 163.23449234 -165.54296875 153.24609375 C-165.21425781 152.116875 -164.88554687 150.98765625 -164.546875 149.82421875 C-163.89791001 147.62581103 -163.22462971 145.43458419 -162.54296875 143.24609375 C-161.88296875 143.24609375 -161.22296875 143.24609375 -160.54296875 143.24609375 C-160.31609375 142.56546875 -160.08921875 141.88484375 -159.85546875 141.18359375 C-158.23070729 137.54722285 -156.21493618 134.21780112 -153.54296875 131.24609375 C-152.88296875 131.24609375 -152.22296875 131.24609375 -151.54296875 131.24609375 C-151.54296875 130.58609375 -151.54296875 129.92609375 -151.54296875 129.24609375 C-141.48120449 121.34459223 -130.61809838 118.12183703 -118.20458984 116.28417969 C-113.93174036 115.73007961 -113.93174036 115.73007961 -110.54296875 113.24609375 C-110.70667969 112.4984375 -110.87039062 111.75078125 -111.0390625 110.98046875 C-111.67672564 107.52028118 -110.86162417 105.76125193 -109.60546875 102.49609375 C-107.79201497 96.97387511 -107.12486781 92.06823602 -107.10546875 86.30859375 C-107.09588135 85.59928711 -107.08629395 84.88998047 -107.07641602 84.15917969 C-107.15099199 79.48575219 -108.07284951 76.20669856 -110.54296875 72.24609375 C-112.57656355 70.97804809 -112.57656355 70.97804809 -114.54296875 70.24609375 C-116.20775979 66.91651167 -115.7275594 63.21565061 -115.73046875 59.55859375 C-115.74883789 58.37233398 -115.74883789 58.37233398 -115.76757812 57.16210938 C-115.77996635 52.16139768 -115.14798014 48.03306828 -113.54296875 43.24609375 C-113.22199219 42.16070312 -112.90101562 41.0753125 -112.5703125 39.95703125 C-109.6395639 30.98620937 -105.6468363 23.46520625 -99.54296875 16.24609375 C-98.88296875 16.24609375 -98.22296875 16.24609375 -97.54296875 16.24609375 C-97.04796875 14.76109375 -97.04796875 14.76109375 -96.54296875 13.24609375 C-95.88296875 13.24609375 -95.22296875 13.24609375 -94.54296875 13.24609375 C-94.54296875 12.58609375 -94.54296875 11.92609375 -94.54296875 11.24609375 C-92.56350283 9.88246167 -90.56104425 8.55190731 -88.54296875 7.24609375 C-88.11757812 6.77042969 -87.6921875 6.29476563 -87.25390625 5.8046875 C-68.62945879 -11.16141875 -20.38433759 -14.05924359 0 0 Z " fill="#827B80" transform="translate(175.54296875,7.75390625)"/>
<path d="M0 0 C0.33 0 0.66 0 1 0 C1.07476562 0.73863281 1.14953125 1.47726563 1.2265625 2.23828125 C2.12824738 9.19539894 3.73682652 14.07199979 7.7578125 19.84375 C11.63539937 29.69623489 8.04577303 39.32405245 4.41015625 48.66772461 C3.61404231 50.71568812 2.84806985 52.77316098 2.0859375 54.83398438 C-1.68111557 64.84055778 -1.68111557 64.84055778 -4 66 C-3.60573284 60.21741496 -1.69053958 55.62295202 0.58984375 50.32421875 C6.23579275 38.07852132 6.23579275 38.07852132 7 25 C4.67921289 19.08429366 4.67921289 19.08429366 1 14 C0.773125 14.7425 0.54625 15.485 0.3125 16.25 C-1 19 -1 19 -3.625 20.8125 C-6.1582134 22.68728081 -6.1582134 22.68728081 -6.2890625 24.921875 C-6.25205531 26.94986894 -6.12852416 28.97574446 -6 31 C-7 34 -7 34 -9 35 C-9.33 35.99 -9.66 36.98 -10 38 C-11.4375 39.6875 -11.4375 39.6875 -13 41 C-13.66 41 -14.32 41 -15 41 C-15.11859375 41.83660156 -15.2371875 42.67320312 -15.359375 43.53515625 C-18.13132102 58.52732774 -25.74224779 71.5337009 -33.48095703 84.46142578 C-34.46437686 86.10488437 -35.43019069 87.75906115 -36.37451172 89.42529297 C-36.79619629 90.14990723 -37.21788086 90.87452148 -37.65234375 91.62109375 C-38.01191162 92.25329834 -38.37147949 92.88550293 -38.74194336 93.53686523 C-40.34300591 95.39891993 -41.61646988 95.62854484 -44 96 C-43.06483756 91.22028084 -41.52519237 88.11859586 -38.625 84.1875 C-33.37964373 77.00103475 -31.06668221 69.54228648 -29 61 C-28.525625 59.845 -28.05125 58.69 -27.5625 57.5 C-23.60401257 47.24024685 -22.44244787 35.90324166 -23 25 C-25.13469817 31.73338305 -27.11227938 38.43992238 -28.75 45.3125 C-30.2796465 51.16294081 -32.37023771 56.40046592 -35.0625 61.8125 C-35.40313477 62.50061768 -35.74376953 63.18873535 -36.09472656 63.89770508 C-37.79591386 67.17874377 -38.87014723 68.91343148 -42 71 C-40.95052191 68.22896427 -39.80008373 65.60923168 -38.44921875 62.96875 C-34.70115174 55.58896396 -32.27215624 48.6675642 -30.5625 40.5625 C-27.95693081 28.41598177 -23.12812022 14.89670309 -14 6 C-11.125 4.5 -11.125 4.5 -9 4 C-8.5875 4.639375 -8.175 5.27875 -7.75 5.9375 C-5.82189513 8.20990931 -4.88575819 8.60196439 -2 9 C-2.33 11.64 -2.66 14.28 -3 17 C-0.85767054 14.08643194 0.09253015 12.72481954 -0.375 9.0625 C-0.58125 8.051875 -0.7875 7.04125 -1 6 C-0.5625 2.625 -0.5625 2.625 0 0 Z M-22 20 C-21 22 -21 22 -21 22 Z " fill="#7C7879" transform="translate(82,145)"/>
<path d="M0 0 C20.82651037 5.70726486 33.89810962 11.85985566 45 31 C45.99761071 32.66809791 46.99694678 34.33516907 48 36 C36.78142471 35.16899442 22.56511029 29.63331642 14.51953125 21.50415039 C12.53302947 19.1728097 10.97205306 16.94283581 9.625 14.1875 C7.68039351 10.37307957 5.20315627 7.27733309 2.5234375 3.953125 C1 2 1 2 0 0 Z " fill="#C566DC" transform="translate(119,147)"/>
<path d="M0 0 C0.33 0.66 0.66 1.32 1 2 C0.69835937 2.598125 0.39671875 3.19625 0.0859375 3.8125 C-1.82191921 7.6556646 -1.61223655 11.81286497 -1 16 C0.29355827 17.37195574 1.62298702 18.71182656 3 20 C3.31911868 23.98898345 2.90334528 25.90231803 0.34765625 29.0078125 C-0.32394531 29.74773437 -0.99554688 30.48765625 -1.6875 31.25 C-6.36885042 36.69206986 -7.97069209 42.31378145 -9.9074707 49.07641602 C-11.59716694 54.93453618 -13.68891008 59.83859513 -17 65 C-18.30137039 61.09588882 -17.38226867 59.31769124 -16.125 55.4375 C-15.75632813 54.28121094 -15.38765625 53.12492187 -15.0078125 51.93359375 C-14 49 -14 49 -13 47 C-11.67367873 39.75704246 -10.93898875 32.59883188 -10.625 25.25 C-9.99409891 14.93102455 -6.58198797 7.85450564 0 0 Z " fill="#C367D9" transform="translate(71,151)"/>
<path d="M0 0 C0.33 0 0.66 0 1 0 C1.07476562 0.73863281 1.14953125 1.47726563 1.2265625 2.23828125 C2.12824738 9.19539894 3.73682652 14.07199979 7.7578125 19.84375 C11.63539937 29.69623489 8.04577303 39.32405245 4.41015625 48.66772461 C3.61404231 50.71568812 2.84806985 52.77316098 2.0859375 54.83398438 C-1.68111557 64.84055778 -1.68111557 64.84055778 -4 66 C-3.60573284 60.21741496 -1.69053958 55.62295202 0.58984375 50.32421875 C6.23579275 38.07852132 6.23579275 38.07852132 7 25 C4.67921289 19.08429366 4.67921289 19.08429366 1 14 C0.773125 14.7425 0.54625 15.485 0.3125 16.25 C-1 19 -1 19 -3.625 20.8125 C-6.1667093 22.70042428 -6.1667093 22.70042428 -6.32421875 25.02734375 C-6.31370668 27.0211326 -6.16557745 29.01307056 -6 31 C-6.33 31 -6.66 31 -7 31 C-7 29.35 -7 27.7 -7 26 C-7.66 26 -8.32 26 -9 26 C-11.125 24.625 -11.125 24.625 -13 22 C-13.59584979 17.21731239 -13.31948457 12.63428726 -12 8 C-12.45890625 8.75925781 -12.9178125 9.51851562 -13.390625 10.30078125 C-14.00421875 11.29464844 -14.6178125 12.28851563 -15.25 13.3125 C-16.15492187 14.79169922 -16.15492187 14.79169922 -17.078125 16.30078125 C-18.87840898 18.82922888 -20.41840585 20.326533 -23 22 C-21.76160932 15.63113365 -17.8822906 9.79673194 -13.25 5.375 C-11 4 -11 4 -9 4 C-8.54625 4.639375 -8.0925 5.27875 -7.625 5.9375 C-5.78915127 8.2676157 -4.87090587 8.60401298 -2 9 C-2.33 11.64 -2.66 14.28 -3 17 C-0.85767054 14.08643194 0.09253015 12.72481954 -0.375 9.0625 C-0.684375 7.5465625 -0.684375 7.5465625 -1 6 C-0.5625 2.625 -0.5625 2.625 0 0 Z " fill="#867E84" transform="translate(82,145)"/>
<path d="M0 0 C2.80105457 2.56058248 4.17165509 4.90777253 5.83203125 8.30859375 C6.61707031 9.87287109 6.61707031 9.87287109 7.41796875 11.46875 C8.45703125 14.24609375 8.45703125 14.24609375 7.45703125 17.24609375 C7.10511719 16.44945313 6.75320312 15.6528125 6.390625 14.83203125 C2.29148935 6.03440853 -1.22990382 0.77954852 -10.34375 -2.87890625 C-17.37680668 -5.35109697 -24.15267811 -5.35786697 -31.54296875 -5.25390625 C-32.22350311 -5.24869965 -32.90403748 -5.24349304 -33.60519409 -5.23812866 C-44.9544247 -5.1364888 -55.64392391 -4.0249636 -66.54296875 -0.75390625 C-67.51339111 -0.48102783 -67.51339111 -0.48102783 -68.50341797 -0.20263672 C-85.31928137 4.60619312 -97.06525705 15.25798623 -105.54296875 30.24609375 C-112.34308447 43.09279886 -115.75394363 56.79670679 -112.54296875 71.24609375 C-114.38884463 69.68300203 -115.43768975 68.77821868 -115.9152832 66.36425781 C-115.91230225 65.67041992 -115.90932129 64.97658203 -115.90625 64.26171875 C-115.90560547 63.49085937 -115.90496094 62.72 -115.90429688 61.92578125 C-115.88012695 60.72308594 -115.88012695 60.72308594 -115.85546875 59.49609375 C-115.85869141 58.70976563 -115.86191406 57.9234375 -115.86523438 57.11328125 C-115.81995042 52.15674701 -115.11967208 47.98730727 -113.54296875 43.24609375 C-113.22199219 42.16070312 -112.90101562 41.0753125 -112.5703125 39.95703125 C-109.6395639 30.98620937 -105.6468363 23.46520625 -99.54296875 16.24609375 C-98.88296875 16.24609375 -98.22296875 16.24609375 -97.54296875 16.24609375 C-97.21296875 15.25609375 -96.88296875 14.26609375 -96.54296875 13.24609375 C-95.88296875 13.24609375 -95.22296875 13.24609375 -94.54296875 13.24609375 C-94.54296875 12.58609375 -94.54296875 11.92609375 -94.54296875 11.24609375 C-92.56350283 9.88246167 -90.56104425 8.55190731 -88.54296875 7.24609375 C-88.11757812 6.77042969 -87.6921875 6.29476563 -87.25390625 5.8046875 C-68.62945879 -11.16141875 -20.38433759 -14.05924359 0 0 Z " fill="#7E777D" transform="translate(175.54296875,7.75390625)"/>
<path d="M0 0 C-0.26436683 6.47698738 -2.39846501 9.54786549 -7 14 C-8.97416265 15.75436721 -10.97701275 17.4712819 -12.984375 19.1875 C-28.16180961 32.8354257 -31.33487907 49.23588056 -32.625 68.75 C-34.19497171 91.13155453 -34.19497171 91.13155453 -36 96 C-38.875 98.3125 -38.875 98.3125 -42 100 C-44.25293726 102.56584522 -46.1060541 105.15908115 -48 108 C-48.99 108 -49.98 108 -51 108 C-51.268125 108.598125 -51.53625 109.19625 -51.8125 109.8125 C-52.98493467 111.97224808 -54.19369282 113.35790256 -56 115 C-53.36 114.67 -50.72 114.34 -48 114 C-49.33934244 116.67868487 -50.51692397 116.74954078 -53.3125 117.6875 C-54.09238281 117.95949219 -54.87226562 118.23148437 -55.67578125 118.51171875 C-58.18274511 119.03839183 -59.60132343 118.8178554 -62 118 C-61.43152344 117.443125 -60.86304688 116.88625 -60.27734375 116.3125 C-51.50620505 107.69601205 -51.50620505 107.69601205 -44 98 C-43.34 98 -42.68 98 -42 98 C-41.731875 97.46375 -41.46375 96.9275 -41.1875 96.375 C-40.32203909 94.64407819 -39.40743488 92.93747269 -38.46484375 91.24731445 C-36.91672193 87.81538639 -36.54532582 85.40701263 -36.375 81.66796875 C-36.31006348 80.46495117 -36.24512695 79.26193359 -36.17822266 78.02246094 C-36.11940918 76.75692383 -36.0605957 75.49138672 -36 74.1875 C-34.93714091 55.93533137 -33.98105841 39.57793807 -22 25 C-21.18402344 23.98292969 -21.18402344 23.98292969 -20.3515625 22.9453125 C-17.35674947 19.30771034 -17.35674947 19.30771034 -16 18 C-15.34 18 -14.68 18 -14 18 C-14 17.34 -14 16.68 -14 16 C-12.33784732 14.66104368 -10.67036393 13.32869858 -9 12 C-8.278125 11.0925 -7.55625 10.185 -6.8125 9.25 C-6.214375 8.5075 -5.61625 7.765 -5 7 C-4.34 7 -3.68 7 -3 7 C-3 6.01 -3 5.02 -3 4 C-3.66 3.67 -4.32 3.34 -5 3 C-1.125 0 -1.125 0 0 0 Z " fill="#736E70" transform="translate(66,124)"/>
<path d="M0 0 C0.33 0 0.66 0 1 0 C3.19958449 18.46079839 3.19958449 18.46079839 0 24 C-0.66 24 -1.32 24 -2 24 C-2.2165625 24.71542969 -2.433125 25.43085937 -2.65625 26.16796875 C-4.35380925 29.74567356 -6.54699802 31.68976798 -9.5 34.3125 C-10.96953125 35.63701172 -10.96953125 35.63701172 -12.46875 36.98828125 C-15 39 -15 39 -17 39 C-17 39.66 -17 40.32 -17 41 C-28.39563632 50.62567579 -44.85027324 58 -60 58 C-59.9278125 58.62003906 -59.855625 59.24007812 -59.78125 59.87890625 C-58.37528121 73.29419183 -56.99504932 87.90053973 -64 100 C-64.66 100 -65.32 100 -66 100 C-66 100.66 -66 101.32 -66 102 C-67.78614318 103.03046722 -69.57910018 104.04913236 -71.375 105.0625 C-72.37273437 105.63097656 -73.37046875 106.19945312 -74.3984375 106.78515625 C-75.25695312 107.18605469 -76.11546875 107.58695312 -77 108 C-77.66 107.67 -78.32 107.34 -79 107 C-77.98679687 106.31164062 -77.98679687 106.31164062 -76.953125 105.609375 C-76.06109375 104.99578125 -75.1690625 104.3821875 -74.25 103.75 C-73.36828125 103.14671875 -72.4865625 102.5434375 -71.578125 101.921875 C-67.33464788 98.75855569 -63.56961331 95.56993593 -62.38549805 90.22753906 C-61.69128797 84.41534321 -61.81545276 78.59645719 -61.8125 72.75 C-61.80025391 71.45835938 -61.78800781 70.16671875 -61.77539062 68.8359375 C-61.77345703 67.60617188 -61.77152344 66.37640625 -61.76953125 65.109375 C-61.76542236 63.98499023 -61.76131348 62.86060547 -61.75708008 61.70214844 C-61.722473 58.85022439 -61.722473 58.85022439 -64 57 C-63.30551758 56.84966309 -62.61103516 56.69932617 -61.89550781 56.54443359 C-43.57273129 52.52169325 -30.26050284 48.61345646 -16 36 C-15.09765625 35.23042969 -14.1953125 34.46085937 -13.265625 33.66796875 C-4.02144042 25.92329723 -4.02144042 25.92329723 -0.29296875 14.94140625 C-0.23388063 13.14906658 -0.1991195 11.35577574 -0.1875 9.5625 C-0.16236328 8.64017578 -0.13722656 7.71785156 -0.11132812 6.76757812 C-0.05287504 4.51128904 -0.016292 2.25692068 0 0 Z " fill="#8D848B" transform="translate(184,25)"/>
<path d="M0 0 C0.83819158 1.62249941 1.6704116 3.24808497 2.5 4.875 C2.9640625 5.77992188 3.428125 6.68484375 3.90625 7.6171875 C5 10 5 10 5 12 C4.34 12 3.68 12 3 12 C1.35 8.7 -0.3 5.4 -2 2 C-3.60339911 5.20679822 -3.34874134 8.51258662 -3 12 C-1.65195113 16.04414662 -0.0858125 18.91100853 2.6875 22.0625 C6.53162394 27.36715735 5.89762483 33.77964198 5 40 C4.12572578 44.31377388 3.04838352 48.56786063 1.86767578 52.80737305 C0.7556758 56.80455131 -0.13449519 60.59515437 -0.50390625 64.734375 C-1.52183678 75.49148827 -8.65268073 83.62469094 -16 91 C-16.58394531 91.58652344 -17.16789062 92.17304688 -17.76953125 92.77734375 C-18.37861328 93.38255859 -18.37861328 93.38255859 -19 94 C-19.66 93.67 -20.32 93.34 -21 93 C-20.26394531 92.24976563 -19.52789062 91.49953125 -18.76953125 90.7265625 C-8.25764767 79.81016827 -4.53348801 70.47852144 -1.89453125 55.609375 C-1.22858857 51.93665655 -0.2585477 48.52074738 1 45 C1.69485998 41.72471396 1.69485998 41.72471396 2 38 C2.10054687 37.17371094 2.20109375 36.34742188 2.3046875 35.49609375 C2.82393064 28.19553515 0.78971305 24.70680077 -3.36328125 18.84375 C-6.02216148 14.22402492 -6.64214252 9.27026729 -6 4 C-3.75041597 0 -3.75041597 0 0 0 Z " fill="#8A8488" transform="translate(97,147)"/>
<path d="M0 0 C0.66 0 1.32 0 2 0 C1.608125 1.134375 1.21625 2.26875 0.8125 3.4375 C0.54308594 4.26636719 0.27367187 5.09523437 -0.00390625 5.94921875 C-0.7354461 8.18973884 -1.49777795 10.42026553 -2.27734375 12.64453125 C-5.25569487 21.52112187 -6.47027285 29.65959298 -6.68579102 39.01342773 C-6.92129452 48.16430065 -8.36601332 57.00793492 -10 66 C-8.02 65.01 -8.02 65.01 -6 64 C-6 64.66 -6 65.32 -6 66 C-10.35294118 70 -10.35294118 70 -14 70 C-13.87882813 69.36835938 -13.75765625 68.73671875 -13.6328125 68.0859375 C-11.82135517 58.41554221 -10.08072987 48.77010016 -9.76074219 38.92236328 C-9.2923767 25.43031486 -6.14926341 12.07077632 0 0 Z " fill="#7D7879" transform="translate(14,152)"/>
<path d="M0 0 C1.8359375 2.91015625 1.8359375 2.91015625 3.375 6.0625 C4.16003906 7.62677734 4.16003906 7.62677734 4.9609375 9.22265625 C6 12 6 12 5 15 C4.64808594 14.20335938 4.29617187 13.40671875 3.93359375 12.5859375 C-0.16390504 3.79182783 -3.68724085 -1.46269171 -12.79296875 -5.12890625 C-19.86899885 -7.61819753 -26.69315413 -7.56013023 -34.125 -7.4375 C-35.50284731 -7.42839587 -36.88069564 -7.41944505 -38.25854492 -7.41064453 C-47.13152878 -7.30350144 -55.54303008 -6.50346912 -64.17578125 -4.4609375 C-65.10777344 -4.30882812 -66.03976563 -4.15671875 -67 -4 C-67.66 -4.66 -68.32 -5.32 -69 -6 C-47.77495752 -10.55436134 -17.67066084 -16.15362477 0 0 Z " fill="#958C94" transform="translate(178,10)"/>
<path d="M0 0 C5.5377833 1.84592777 8.35621659 7.85902308 10.97460938 12.86230469 C11.97556164 14.88119145 12.96051742 16.90690876 13.9375 18.9375 C17.27890183 25.88033494 21.23325711 31.92674086 26 38 C29.47617009 42.46181832 31.93087543 46.33363976 33 52 C32.5390625 54.20703125 32.5390625 54.20703125 32 56 C31.78988281 55.34257812 31.57976562 54.68515625 31.36328125 54.0078125 C28.75267025 46.84561577 25.25095142 41.30992054 20.6875 35.25 C15.45254978 28.29413173 11.3238384 21.34883755 7.68359375 13.453125 C6.03465302 10.07107488 4.13660165 7.09068163 2 4 C1.30570621 2.6808418 0.62469505 1.35350594 0 0 Z " fill="#797475" transform="translate(105,142)"/>
<path d="M0 0 C0.99 0.66 1.98 1.32 3 2 C3.66 1.67 4.32 1.34 5 1 C3.66289591 5.01131227 1.6554463 8.00383344 -0.83203125 11.359375 C-2.10926902 13.15348825 -3.04618408 15.01899771 -4 17 C-4.66 17.66 -5.32 18.32 -6 19 C-6.99 19 -7.98 19 -9 19 C-8.40510728 12.21822303 -7.60420733 6.36195548 -2.3125 1.5625 C-1.549375 1.046875 -0.78625 0.53125 0 0 Z " fill="#7D757B" transform="translate(94,88)"/>
<path d="M0 0 C0.66 0.33 1.32 0.66 2 1 C0.35 2.32 -1.3 3.64 -3 5 C-2.34 5.66 -1.68 6.32 -1 7 C-1.60328125 7.32613281 -2.2065625 7.65226562 -2.828125 7.98828125 C-3.62734375 8.42527344 -4.4265625 8.86226562 -5.25 9.3125 C-6.03890625 9.74175781 -6.8278125 10.17101563 -7.640625 10.61328125 C-9.89727134 11.9396214 -11.93998597 13.38884224 -14 15 C-13.34 13.68 -12.68 12.36 -12 11 C-12.928125 11.495 -12.928125 11.495 -13.875 12 C-16 13 -16 13 -18 13 C-18 13.66 -18 14.32 -18 15 C-18.66 14.67 -19.32 14.34 -20 14 C-19.58682778 9.17965738 -17.61980085 7.09007389 -14 4 C-13.34 4 -12.68 4 -12 4 C-12.33 5.32 -12.66 6.64 -13 8 C-12.08476563 7.41089844 -11.16953125 6.82179688 -10.2265625 6.21484375 C-9.02630819 5.45530782 -7.82577271 4.69621609 -6.625 3.9375 C-6.02171875 3.54755859 -5.4184375 3.15761719 -4.796875 2.75585938 C-3.23507443 1.77539568 -1.62007786 0.88083925 0 0 Z " fill="#A36EAE" transform="translate(138,40)"/>
<path d="M0 0 C0.83819158 1.62249941 1.6704116 3.24808497 2.5 4.875 C2.9640625 5.77992188 3.428125 6.68484375 3.90625 7.6171875 C5 10 5 10 5 12 C4.34 12 3.68 12 3 12 C1.35 8.7 -0.3 5.4 -2 2 C-3.60255922 5.20511845 -3.35363444 8.5141748 -3 12 C-1.73440165 15.73351513 -0.61660334 18.34658452 2.09375 21.21875 C4.53387818 24.77893702 4.45640717 27.66450972 4.25 31.8125 C4.23195313 32.50537109 4.21390625 33.19824219 4.1953125 33.91210938 C4.14851064 35.60867664 4.07677624 37.30452476 4 39 C3.67 39 3.34 39 3 39 C3.00902344 38.26136719 3.01804687 37.52273437 3.02734375 36.76171875 C2.84662499 30.57799431 2.13151144 26.58708658 -1.5 21.5 C-5.37622271 16.0046966 -6.82111605 10.73915974 -6 4 C-3.75041597 0 -3.75041597 0 0 0 Z " fill="#827B7F" transform="translate(97,147)"/>
<path d="M0 0 C0.99 0 1.98 0 3 0 C3 0.99 3 1.98 3 3 C1.01399663 4.3540932 -0.98817543 5.68457624 -3 7 C-5.25293726 9.56584522 -7.1060541 12.15908115 -9 15 C-9.99 15 -10.98 15 -12 15 C-12.268125 15.598125 -12.53625 16.19625 -12.8125 16.8125 C-13.98493467 18.97224808 -15.19369282 20.35790256 -17 22 C-13.04 21.505 -13.04 21.505 -9 21 C-10.33934244 23.67868487 -11.51692397 23.74954078 -14.3125 24.6875 C-15.09238281 24.95949219 -15.87226563 25.23148438 -16.67578125 25.51171875 C-19.18274511 26.03839183 -20.60132343 25.8178554 -23 25 C-22.43152344 24.443125 -21.86304688 23.88625 -21.27734375 23.3125 C-12.50620505 14.69601205 -12.50620505 14.69601205 -5 5 C-4.34 5 -3.68 5 -3 5 C-2.690625 4.360625 -2.38125 3.72125 -2.0625 3.0625 C-1 1 -1 1 0 0 Z " fill="#7D727B" transform="translate(27,217)"/>
<path d="M0 0 C1.40547122 4.21641366 -0.03103645 7.44922807 -1.25 11.5625 C-1.60505615 12.78694824 -1.60505615 12.78694824 -1.96728516 14.03613281 C-2.43563219 15.64822248 -2.90706059 17.25942072 -3.38183594 18.86962891 C-3.86788743 20.54470211 -4.31938692 22.22980427 -4.7578125 23.91796875 C-6.11577288 29.04899625 -8.17046351 33.73959038 -10.5 38.5 C-10.79696777 39.11262695 -11.09393555 39.72525391 -11.39990234 40.35644531 C-13.00887528 43.5280385 -13.97329944 44.98219963 -17 47 C-15.95052191 44.22896427 -14.80008373 41.60923168 -13.44921875 38.96875 C-9.1855649 30.57379519 -6.60954201 22.45670708 -4.6862793 13.234375 C-3.66522759 8.40276744 -2.48037669 4.3406592 0 0 Z " fill="#6E666D" transform="translate(57,169)"/>
<path d="M0 0 C4.70114747 3.11508072 8.30933456 5.75237521 10.859375 10.93359375 C12.9610013 14.74099208 15.75206203 18.09940952 18.390625 21.546875 C20 24 20 24 20 27 C16.18758404 25.72919468 15.87549191 24.45978902 14 21 C9.74043404 13.49679904 5.10664139 7.10664139 -1 1 C-0.67 0.67 -0.34 0.34 0 0 Z " fill="#8A8287" transform="translate(149,157)"/>
<path d="M0 0 C0.33 0 0.66 0 1 0 C3.19958449 18.46079839 3.19958449 18.46079839 0 24 C-0.66 24 -1.32 24 -2 24 C-2.20625 24.721875 -2.4125 25.44375 -2.625 26.1875 C-4.45248163 29.9255306 -6.70438806 31.49246917 -10 34 C-10 30.26161126 -9.11005385 29.67777231 -6.625 27 C-3.1155197 23.18723128 -0.78899716 20.64542575 -0.5859375 15.33203125 C-0.54726562 14.43935547 -0.50859375 13.54667969 -0.46875 12.62695312 C-0.42234375 11.23379883 -0.42234375 11.23379883 -0.375 9.8125 C-0.31699219 8.40194336 -0.31699219 8.40194336 -0.2578125 6.96289062 C-0.16356813 4.6421229 -0.07795975 2.32136252 0 0 Z " fill="#9A8F97" transform="translate(184,25)"/>
<path d="M0 0 C1.2294968 3.68849039 0.59985863 4.64911744 -0.8125 8.1875 C-4.82680056 18.79969939 -6.52087695 28.6560537 -4 40 C-5.84587588 38.43690828 -6.894721 37.53212493 -7.37231445 35.11816406 C-7.3693335 34.42432617 -7.36635254 33.73048828 -7.36328125 33.015625 C-7.36263672 32.24476562 -7.36199219 31.47390625 -7.36132812 30.6796875 C-7.34521484 29.87789062 -7.32910156 29.07609375 -7.3125 28.25 C-7.31572266 27.46367188 -7.31894531 26.67734375 -7.32226562 25.8671875 C-7.25759171 18.78833347 -5.35023746 12.74856064 -2.9375 6.125 C-2.59589844 5.17882813 -2.25429687 4.23265625 -1.90234375 3.2578125 C-1 1 -1 1 0 0 Z " fill="#716B6F" transform="translate(67,39)"/>
<path d="M0 0 C0.45375 0.495 0.9075 0.99 1.375 1.5 C2.87635519 3.22609337 2.87635519 3.22609337 5 3 C4.58578031 7.83256305 2.53586014 9.82679218 -1 13 C-1.66 12.67 -2.32 12.34 -3 12 C-3.2954439 6.97745369 -2.98514628 4.10457614 0 0 Z " fill="#C4C4C4" transform="translate(73,153)"/>
<path d="M0 0 C1.27875 0.28875 2.5575 0.5775 3.875 0.875 C5.58298915 1.25156454 7.29134501 1.62646833 9 2 C9.86238281 2.19078125 10.72476563 2.3815625 11.61328125 2.578125 C16.15402798 3.54277529 20.32726127 4.24593362 25 4 C25.33 4.99 25.66 5.98 26 7 C6.48579161 6.48579161 6.48579161 6.48579161 0 0 Z " fill="#6E6A6C" transform="translate(150,179)"/>
<path d="M0 0 C-0.2623219 6.42688648 -2.33622561 9.64449214 -7 14 C-9.59270475 16.11326384 -12.25102083 18.09525048 -15 20 C-15.33 19.34 -15.66 18.68 -16 18 C-15.34 18 -14.68 18 -14 18 C-14 17.34 -14 16.68 -14 16 C-12.33784732 14.66104368 -10.67036393 13.32869858 -9 12 C-8.278125 11.0925 -7.55625 10.185 -6.8125 9.25 C-5.9153125 8.13625 -5.9153125 8.13625 -5 7 C-4.34 7 -3.68 7 -3 7 C-3 6.01 -3 5.02 -3 4 C-3.66 3.67 -4.32 3.34 -5 3 C-1.125 0 -1.125 0 0 0 Z " fill="#7B7678" transform="translate(66,124)"/>
<path d="M0 0 C0 0.66 0 1.32 0 2 C-1.18498417 3.15112748 -2.37206744 4.30018266 -3.5703125 5.4375 C-5.19362906 7.21161646 -6.33852626 9.05716858 -7.5625 11.125 C-9.35455495 14.13066178 -10.92670437 16.17878778 -14 18 C-12.76160932 11.63113365 -8.8822906 5.79673194 -4.25 1.375 C-2 0 -2 0 0 0 Z " fill="#746B72" transform="translate(73,149)"/>
<path d="M0 0 C5.54295888 1.84765296 8.43784989 8.14485403 11.15625 13.11328125 C12.64433183 16.33056928 13.15176748 17.54469756 12 21 C11.46890625 19.96359375 10.9378125 18.9271875 10.390625 17.859375 C9.67747626 16.48937873 8.96391264 15.11959836 8.25 13.75 C7.90195313 13.06808594 7.55390625 12.38617188 7.1953125 11.68359375 C5.17745829 7.83472368 3.18717201 5.01489244 0 2 C0 1.34 0 0.68 0 0 Z " fill="#6C6868" transform="translate(105,142)"/>
<path d="M0 0 C0.33 0 0.66 0 1 0 C1.91297308 4.97063121 1.91297308 9.02936879 1 14 C0.34 13.34 -0.32 12.68 -1 12 C-1.99 12.66 -2.98 13.32 -4 14 C-6.48046875 14.1953125 -6.48046875 14.1953125 -9.1875 14.125 C-10.08855469 14.10695313 -10.98960938 14.08890625 -11.91796875 14.0703125 C-12.60503906 14.04710938 -13.29210938 14.02390625 -14 14 C-14 13.67 -14 13.34 -14 13 C-8.555 12.505 -8.555 12.505 -3 12 C-3 11.34 -3 10.68 -3 10 C-2.34 9.34 -1.68 8.68 -1 8 C-1.33 7.01 -1.66 6.02 -2 5 C-1.34 5 -0.68 5 0 5 C0 3.35 0 1.7 0 0 Z " fill="#9C7CA2" transform="translate(66,113)"/>
<path d="M0 0 C0.66 1.32 1.32 2.64 2 4 C-0.33333333 6.33333333 -2.66666667 8.66666667 -5 11 C-6 10 -6 10 -6.4375 7.75 C-5.76954321 3.55141445 -3.3691394 2.45666415 0 0 Z " fill="#888186" transform="translate(94,88)"/>
<path d="M0 0 C0.66 0.99 1.32 1.98 2 3 C0.25719203 4.96516623 -1.49364406 6.92200369 -3.25 8.875 C-3.74113281 9.43058594 -4.23226562 9.98617187 -4.73828125 10.55859375 C-7.26831373 13.35849636 -9.42491005 15.65508521 -13 17 C-12.13375 16.01 -11.2675 15.02 -10.375 14 C-4.61014821 7.39934356 -4.61014821 7.39934356 0 0 Z " fill="#928A8F" transform="translate(89,224)"/>
<path d="M0 0 C1 3 1 3 0.9375 5.5 C0.78382114 8.25394157 0.78382114 8.25394157 3 11 C3 11.66 3 12.32 3 13 C3.66 13 4.32 13 5 13 C6.35439668 15.70879335 6.06501451 18.00933268 6 21 C5.67 21 5.34 21 5 21 C5 19.35 5 17.7 5 16 C4.34 16 3.68 16 3 16 C0.875 14.625 0.875 14.625 -1 12 C-1.4871454 7.97293139 -1.84457074 3.68914149 0 0 Z " fill="#857A85" transform="translate(70,155)"/>
<path d="M0 0 C0.33 0 0.66 0 1 0 C1.02714434 2.7084017 1.04690846 5.41652721 1.0625 8.125 C1.07087891 8.88554687 1.07925781 9.64609375 1.08789062 10.4296875 C1.10646509 14.7389644 0.86117265 18.75516474 0 23 C-1.82980884 19.9071918 -2.18980265 18.005044 -1.7578125 14.453125 C-1.66113281 13.60878906 -1.56445312 12.76445312 -1.46484375 11.89453125 C-1.35269531 11.02183594 -1.24054687 10.14914063 -1.125 9.25 C-1.02058594 8.36183594 -0.91617187 7.47367188 -0.80859375 6.55859375 C-0.54983 4.37086385 -0.27996212 2.18510119 0 0 Z " fill="#71686F" transform="translate(6,182)"/>
<path d="M0 0 C0.66 0.33 1.32 0.66 2 1 C0.35 2.32 -1.3 3.64 -3 5 C-2.34 5.66 -1.68 6.32 -1 7 C-2.98 7.66 -4.96 8.32 -7 9 C-7.33 7.68 -7.66 6.36 -8 5 C-6.71475739 4.13619741 -5.42157581 3.28419631 -4.125 2.4375 C-3.04605469 1.72400391 -3.04605469 1.72400391 -1.9453125 0.99609375 C-1.30335938 0.66738281 -0.66140625 0.33867188 0 0 Z " fill="#B273C1" transform="translate(138,40)"/>
<path d="M0 0 C0.33 0.99 0.66 1.98 1 3 C0.0390625 4.82421875 0.0390625 4.82421875 -1.375 6.6875 C-1.83648437 7.31011719 -2.29796875 7.93273437 -2.7734375 8.57421875 C-3.17820312 9.04472656 -3.58296875 9.51523438 -4 10 C-4.33 10 -4.66 10 -5 10 C-4.50769231 3.47692308 -4.50769231 3.47692308 -1.9375 1.0625 C-0.9784375 0.5365625 -0.9784375 0.5365625 0 0 Z " fill="#B76DC9" transform="translate(77,156)"/>
<path d="M0 0 C0.33 0.66 0.66 1.32 1 2 C-0.98 4.64 -2.96 7.28 -5 10 C-5.66 9.67 -6.32 9.34 -7 9 C-5.64978174 4.58110387 -3.73884332 2.65654657 0 0 Z " fill="#6D6A69" transform="translate(98,89)"/>
<path d="M0 0 C0.33 1.32 0.66 2.64 1 4 C-1.31 5.65 -3.62 7.3 -6 9 C-5.505 8.0409375 -5.505 8.0409375 -5 7.0625 C-3.92728775 5.23205433 -3.92728775 5.23205433 -4 4 C-4.66 3.67 -5.32 3.34 -6 3 C-2.25 0 -2.25 0 0 0 Z " fill="#AA76B5" transform="translate(130,46)"/>
<path d="M0 0 C0 2 0 2 -2.1875 4.5 C-4.81943784 6.8395003 -6.6846364 7.95802858 -10 9 C-9.04663979 7.68388323 -8.08714226 6.37221039 -7.125 5.0625 C-6.59132812 4.33160156 -6.05765625 3.60070312 -5.5078125 2.84765625 C-3.72258144 0.66005446 -2.83689522 0 0 0 Z " fill="#8A8187" transform="translate(41,143)"/>
<path d="M0 0 C0.66 0 1.32 0 2 0 C2 0.99 2 1.98 2 3 C3.65 2.34 5.3 1.68 7 1 C2.375 5.875 2.375 5.875 -1 7 C-0.67 4.69 -0.34 2.38 0 0 Z " fill="#898387" transform="translate(58,249)"/>
<path d="M0 0 C-1.16290805 3.48872415 -2.13967609 4.09976864 -5.0625 6.1875 C-5.79597656 6.71730469 -6.52945313 7.24710938 -7.28515625 7.79296875 C-7.85105469 8.19128906 -8.41695313 8.58960938 -9 9 C-9.66 8.67 -10.32 8.34 -11 8 C-9.54712339 6.66072279 -8.08752741 5.32873153 -6.625 4 C-5.81289062 3.2575 -5.00078125 2.515 -4.1640625 1.75 C-2 0 -2 0 0 0 Z " fill="#8F878D" transform="translate(76,241)"/>
<path d="M0 0 C1.52408942 2.03211923 2.06871724 3.43917864 1.7578125 5.9765625 C0.4375 11.5625 0.4375 11.5625 -2 14 C-2.25328119 8.93437617 -1.33583899 4.84241633 0 0 Z " fill="#8F7691" transform="translate(52,208)"/>
<path d="M0 0 C0.66 0 1.32 0 2 0 C2.75 2.125 2.75 2.125 3 5 C1.0625 8.3125 1.0625 8.3125 -1 11 C-2.31625194 8.36749612 -1.74813658 7.19820944 -1.0625 4.375 C-0.86785156 3.55773437 -0.67320313 2.74046875 -0.47265625 1.8984375 C-0.23869141 0.95871094 -0.23869141 0.95871094 0 0 Z " fill="#B9B9B9" transform="translate(80,152)"/>
<path d="M0 0 C2.35171131 0.59861742 4.6859378 1.26924352 7 2 C7.33 2.66 7.66 3.32 8 4 C7.67 4.66 7.34 5.32 7 6 C2.32307692 4.52307692 2.32307692 4.52307692 0.6875 1.875 C0.460625 1.25625 0.23375 0.6375 0 0 Z " fill="#777673" transform="translate(110,141)"/>
<path d="M0 0 C1.39195915 4.17587745 -0.17676781 6.13474776 -2 10 C-2.6875 8.375 -2.6875 8.375 -3 6 C-1.5625 2.75 -1.5625 2.75 0 0 Z " fill="#756974" transform="translate(57,169)"/>
<path d="M0 0 C0 2 0 2 -2.375 4.5625 C-5 7 -5 7 -7 8 C-4.73913043 0 -4.73913043 0 0 0 Z " fill="#7F777D" transform="translate(73,149)"/>
<path d="M0 0 C0.99 0 1.98 0 3 0 C3 0.99 3 1.98 3 3 C1.02 3.66 -0.96 4.32 -3 5 C-1.125 1.125 -1.125 1.125 0 0 Z " fill="#8B778D" transform="translate(27,217)"/>
<path d="M0 0 C0.66 0 1.32 0 2 0 C1.67 0.66 1.34 1.32 1 2 C0.67 1.34 0.34 0.68 0 0 Z " fill="#999A94" transform="translate(28,172)"/>
</svg>
