<?xml version="1.0" encoding="UTF-8"?>
<svg version="1.1" xmlns="http://www.w3.org/2000/svg" width="186" height="256">
<path d="M0,0 L135,0 L135,1 L124,1 L124,2 L119,2 L119,3 L114,3 L114,4 L111,4 L111,6 L107,6 L107,7 L106,7 L106,6 L104,6 L104,7 L101,7 L101,8 L102,8 L102,9 L100,9 L100,8 L99,8 L99,10 L97,10 L97,11 L95,11 L95,12 L93,12 L93,13 L91,13 L91,14 L90,14 L90,15 L88,15 L88,16 L87,16 L87,17 L86,17 L86,18 L85,18 L85,19 L84,19 L84,20 L83,20 L83,21 L81,21 L81,23 L80,23 L80,24 L78,24 L78,26 L77,26 L77,27 L76,27 L76,28 L75,28 L75,30 L74,30 L74,31 L73,31 L73,32 L72,32 L72,34 L71,34 L71,36 L70,36 L70,37 L69,37 L69,39 L68,39 L68,41 L67,41 L67,44 L66,44 L66,46 L65,46 L65,49 L64,49 L64,52 L63,52 L63,56 L62,56 L62,61 L61,61 L61,74 L62,74 L62,76 L63,76 L63,79 L65,79 L65,80 L66,80 L66,81 L67,81 L67,84 L68,84 L68,86 L69,86 L69,89 L70,89 L70,90 L69,90 L69,94 L70,94 L70,95 L69,95 L69,98 L70,98 L70,99 L69,99 L69,101 L70,101 L70,103 L68,103 L68,105 L69,105 L69,108 L68,108 L68,110 L67,110 L67,111 L66,111 L66,112 L65,112 L65,113 L66,113 L66,119 L65,119 L65,121 L66,121 L66,122 L65,122 L65,123 L63,123 L63,124 L60,124 L60,126 L58,126 L58,125 L57,125 L57,126 L51,126 L51,127 L48,127 L48,126 L46,126 L46,127 L45,127 L45,128 L44,128 L44,127 L42,127 L42,128 L43,128 L43,129 L40,129 L40,128 L39,128 L39,129 L37,129 L37,130 L38,130 L38,131 L36,131 L36,132 L35,132 L35,133 L33,133 L33,132 L31,132 L31,133 L30,133 L30,134 L28,134 L28,135 L27,135 L27,136 L26,136 L26,137 L27,137 L27,138 L26,138 L26,139 L25,139 L25,137 L24,137 L24,139 L22,139 L22,141 L21,141 L21,142 L22,142 L22,144 L21,144 L21,145 L20,145 L20,146 L19,146 L19,147 L18,147 L18,148 L16,148 L16,150 L15,150 L15,151 L13,151 L13,154 L14,154 L14,152 L16,152 L16,153 L15,153 L15,155 L14,155 L14,158 L12,158 L12,159 L11,159 L11,160 L12,160 L12,163 L10,163 L10,164 L11,164 L11,168 L10,168 L10,170 L9,170 L9,173 L8,173 L8,172 L7,172 L7,175 L8,175 L8,178 L7,178 L7,195 L6,195 L6,201 L4,201 L4,202 L6,202 L6,203 L5,203 L5,204 L4,204 L4,205 L5,205 L5,209 L4,209 L4,213 L3,213 L3,218 L2,218 L2,220 L3,220 L3,219 L4,219 L4,220 L5,220 L5,218 L6,218 L6,217 L7,217 L7,216 L8,216 L8,215 L9,215 L9,214 L11,214 L11,213 L12,213 L12,210 L13,210 L13,209 L15,209 L15,208 L16,208 L16,207 L15,207 L15,206 L17,206 L17,205 L16,205 L16,203 L17,203 L17,201 L18,201 L18,200 L19,200 L19,196 L20,196 L20,190 L21,190 L21,187 L22,187 L22,181 L23,181 L23,170 L24,170 L24,167 L25,167 L25,165 L26,165 L26,163 L27,163 L27,161 L28,161 L28,159 L29,159 L29,157 L30,157 L30,154 L31,154 L31,152 L32,152 L32,150 L33,150 L33,151 L35,151 L35,150 L36,150 L36,149 L34,149 L34,148 L35,148 L35,147 L36,147 L36,148 L37,148 L37,147 L38,147 L38,146 L39,146 L39,145 L41,145 L41,144 L42,144 L42,143 L43,143 L43,142 L44,142 L44,141 L45,141 L45,140 L46,140 L46,139 L48,139 L48,138 L49,138 L49,137 L50,137 L50,136 L51,136 L51,135 L52,135 L52,134 L54,134 L54,132 L56,132 L56,131 L58,131 L58,129 L59,129 L59,130 L60,130 L60,128 L61,128 L61,127 L62,127 L62,128 L63,128 L63,127 L64,127 L64,129 L63,129 L63,130 L64,130 L64,132 L63,132 L63,133 L62,133 L62,134 L61,134 L61,135 L60,135 L60,136 L59,136 L59,137 L58,137 L58,138 L57,138 L57,139 L56,139 L56,140 L55,140 L55,141 L54,141 L54,142 L53,142 L53,143 L51,143 L51,145 L50,145 L50,146 L49,146 L49,147 L48,147 L48,148 L47,148 L47,149 L46,149 L46,150 L45,150 L45,151 L44,151 L44,153 L43,153 L43,154 L42,154 L42,155 L41,155 L41,157 L40,157 L40,159 L39,159 L39,160 L38,160 L38,163 L37,163 L37,166 L36,166 L36,170 L35,170 L35,174 L34,174 L34,182 L33,182 L33,194 L32,194 L32,208 L31,208 L31,214 L30,214 L30,217 L29,217 L29,218 L28,218 L28,217 L27,217 L27,218 L26,218 L26,219 L25,219 L25,220 L27,220 L27,221 L26,221 L26,222 L25,222 L25,223 L24,223 L24,224 L23,224 L23,225 L22,225 L22,226 L21,226 L21,227 L20,227 L20,228 L19,228 L19,229 L18,229 L18,230 L17,230 L17,231 L16,231 L16,230 L15,230 L15,231 L14,231 L14,232 L15,232 L15,233 L14,233 L14,234 L13,234 L13,235 L12,235 L12,236 L10,236 L10,237 L11,237 L11,238 L9,238 L9,239 L8,239 L8,241 L9,241 L9,242 L10,242 L10,240 L13,240 L13,239 L16,239 L16,238 L18,238 L18,237 L19,237 L19,236 L21,236 L21,235 L22,235 L22,234 L23,234 L23,233 L25,233 L25,232 L26,232 L26,231 L27,231 L27,230 L28,230 L28,229 L29,229 L29,228 L30,228 L30,227 L31,227 L31,226 L32,226 L32,225 L33,225 L33,224 L34,224 L34,223 L35,223 L35,221 L36,221 L36,220 L37,220 L37,219 L38,219 L38,217 L39,217 L39,216 L40,216 L40,214 L41,214 L41,213 L42,213 L42,211 L43,211 L43,210 L44,210 L44,208 L45,208 L45,206 L46,206 L46,204 L47,204 L47,201 L48,201 L48,199 L49,199 L49,196 L50,196 L50,193 L51,193 L51,190 L53,190 L53,189 L52,189 L52,186 L53,186 L53,181 L54,181 L54,177 L55,177 L55,174 L56,174 L56,171 L57,171 L57,169 L58,169 L58,167 L59,167 L59,165 L60,165 L60,163 L61,163 L61,161 L62,161 L62,159 L63,159 L63,158 L64,158 L64,160 L63,160 L63,162 L62,162 L62,163 L63,163 L63,164 L61,164 L61,167 L60,167 L60,170 L61,170 L61,179 L60,179 L60,180 L61,180 L61,181 L60,181 L60,182 L59,182 L59,183 L60,183 L60,187 L59,187 L59,189 L58,189 L58,190 L57,190 L57,197 L58,197 L58,198 L56,198 L56,200 L55,200 L55,203 L56,203 L56,205 L55,205 L55,206 L53,206 L53,207 L54,207 L54,212 L53,212 L53,208 L52,208 L52,213 L53,213 L53,215 L52,215 L52,217 L51,217 L51,219 L50,219 L50,222 L51,222 L51,220 L52,220 L52,219 L53,219 L53,220 L54,220 L54,218 L53,218 L53,216 L54,216 L54,215 L55,215 L55,213 L56,213 L56,211 L57,211 L57,209 L58,209 L58,207 L59,207 L59,205 L60,205 L60,201 L61,201 L61,198 L62,198 L62,195 L63,195 L63,192 L64,192 L64,189 L65,189 L65,187 L66,187 L66,185 L67,185 L67,184 L68,184 L68,183 L69,183 L69,182 L70,182 L70,181 L71,181 L71,179 L72,179 L72,178 L73,178 L73,176 L74,176 L74,170 L73,170 L73,168 L72,168 L72,167 L70,167 L70,166 L74,166 L74,165 L75,165 L75,164 L79,164 L79,162 L80,162 L80,160 L81,160 L81,159 L82,159 L82,157 L83,157 L83,154 L84,154 L84,160 L85,160 L85,162 L86,162 L86,163 L87,163 L87,165 L88,165 L88,167 L89,167 L89,170 L91,170 L91,173 L90,173 L90,178 L89,178 L89,180 L88,180 L88,184 L87,184 L87,187 L86,187 L86,188 L85,188 L85,192 L84,192 L84,195 L83,195 L83,197 L82,197 L82,200 L81,200 L81,201 L82,201 L82,202 L81,202 L81,203 L80,203 L80,204 L79,204 L79,208 L78,208 L78,211 L77,211 L77,213 L76,213 L76,216 L75,216 L75,221 L74,221 L74,222 L73,222 L73,226 L72,226 L72,227 L71,227 L71,228 L70,228 L70,230 L69,230 L69,233 L68,233 L68,234 L67,234 L67,236 L66,236 L66,237 L65,237 L65,239 L64,239 L64,241 L63,241 L63,243 L62,243 L62,244 L61,244 L61,246 L60,246 L60,249 L58,249 L58,250 L59,250 L59,251 L58,251 L58,252 L57,252 L57,254 L59,254 L59,255 L60,255 L60,254 L61,254 L61,253 L63,253 L63,252 L64,252 L64,251 L65,251 L65,250 L67,250 L67,249 L68,249 L68,248 L69,248 L69,247 L70,247 L70,246 L72,246 L72,245 L73,245 L73,244 L75,244 L75,243 L76,243 L76,241 L78,241 L78,240 L79,240 L79,239 L80,239 L80,238 L81,238 L81,237 L82,237 L82,236 L83,236 L83,235 L84,235 L84,234 L85,234 L85,233 L86,233 L86,232 L87,232 L87,231 L88,231 L88,229 L89,229 L89,228 L90,228 L90,227 L91,227 L91,224 L92,224 L92,223 L93,223 L93,221 L94,221 L94,218 L95,218 L95,216 L96,216 L96,214 L95,214 L95,213 L96,213 L96,207 L97,207 L97,203 L98,203 L98,201 L97,201 L97,199 L98,199 L98,200 L99,200 L99,195 L100,195 L100,192 L99,192 L99,191 L101,191 L101,187 L102,187 L102,173 L101,173 L101,172 L98,172 L98,170 L99,170 L99,168 L98,168 L98,167 L97,167 L97,168 L96,168 L96,167 L95,167 L95,166 L96,166 L96,164 L95,164 L95,163 L94,163 L94,164 L93,164 L93,162 L92,162 L92,155 L91,155 L91,152 L92,152 L92,150 L93,150 L93,151 L94,151 L94,149 L95,149 L95,148 L96,148 L96,152 L98,152 L98,155 L99,155 L99,157 L100,157 L100,159 L101,159 L101,158 L102,158 L102,160 L103,160 L103,161 L102,161 L102,162 L103,162 L103,164 L104,164 L104,165 L106,165 L106,166 L105,166 L105,168 L106,168 L106,169 L107,169 L107,170 L108,170 L108,172 L107,172 L107,173 L109,173 L109,175 L108,175 L108,176 L110,176 L110,178 L109,178 L109,179 L110,179 L110,180 L112,180 L112,182 L111,182 L111,183 L113,183 L113,185 L112,185 L112,186 L113,186 L113,187 L115,187 L115,188 L114,188 L114,190 L115,190 L115,189 L116,189 L116,192 L117,192 L117,194 L116,194 L116,195 L118,195 L118,197 L117,197 L117,198 L119,198 L119,200 L120,200 L120,202 L119,202 L119,203 L120,203 L120,204 L121,204 L121,206 L122,206 L122,209 L123,209 L123,211 L122,211 L122,213 L123,213 L123,214 L124,214 L124,218 L123,218 L123,223 L124,223 L124,224 L123,224 L123,225 L122,225 L122,228 L121,228 L121,231 L120,231 L120,234 L119,234 L119,236 L118,236 L118,239 L117,239 L117,242 L116,242 L116,243 L115,243 L115,246 L114,246 L114,248 L113,248 L113,252 L114,252 L114,250 L115,250 L115,251 L116,251 L116,252 L118,252 L118,251 L120,251 L120,250 L122,250 L122,249 L124,249 L124,248 L125,248 L125,247 L127,247 L127,246 L128,246 L128,245 L129,245 L129,244 L130,244 L130,241 L131,241 L131,239 L132,239 L132,238 L133,238 L133,236 L134,236 L134,231 L135,231 L135,230 L136,230 L136,226 L137,226 L137,219 L138,219 L138,209 L137,209 L137,208 L138,208 L138,194 L136,194 L136,191 L135,191 L135,189 L134,189 L134,187 L133,187 L133,185 L132,185 L132,184 L131,184 L131,183 L130,183 L130,181 L129,181 L129,180 L128,180 L128,178 L127,178 L127,177 L126,177 L126,176 L125,176 L125,174 L124,174 L124,173 L123,173 L123,172 L122,172 L122,170 L121,170 L121,169 L120,169 L120,167 L119,167 L119,166 L118,166 L118,163 L117,163 L117,162 L116,162 L116,159 L115,159 L115,157 L114,157 L114,155 L113,155 L113,153 L112,153 L112,151 L111,151 L111,150 L110,150 L110,148 L109,148 L109,147 L108,147 L108,146 L107,146 L107,145 L106,145 L106,144 L105,144 L105,142 L103,142 L103,141 L102,141 L102,140 L100,140 L100,139 L105,139 L105,141 L106,141 L106,140 L108,140 L108,141 L110,141 L110,140 L109,140 L109,139 L110,139 L110,138 L108,138 L108,137 L109,137 L109,136 L108,136 L108,135 L109,135 L109,134 L108,134 L108,133 L107,133 L107,132 L109,132 L109,131 L111,131 L111,130 L113,130 L113,129 L114,129 L114,128 L116,128 L116,125 L117,125 L117,127 L118,127 L118,124 L119,124 L119,125 L120,125 L120,124 L121,124 L121,121 L122,121 L122,119 L123,119 L123,116 L124,116 L124,109 L125,109 L125,100 L124,100 L124,99 L123,99 L123,97 L124,97 L124,94 L125,94 L125,88 L124,88 L124,83 L123,83 L123,82 L125,82 L125,83 L127,83 L127,81 L129,81 L129,82 L131,82 L131,81 L135,81 L135,79 L137,79 L137,80 L140,80 L140,79 L144,79 L144,78 L147,78 L147,77 L149,77 L149,75 L150,75 L150,76 L152,76 L152,75 L154,75 L154,74 L155,74 L155,73 L157,73 L157,72 L159,72 L159,71 L160,71 L160,70 L161,70 L161,69 L163,69 L163,68 L164,68 L164,67 L165,67 L165,66 L167,66 L167,64 L169,64 L169,63 L170,63 L170,62 L171,62 L171,61 L172,61 L172,60 L174,60 L174,59 L175,59 L175,58 L176,58 L176,57 L177,57 L177,56 L178,56 L178,55 L179,55 L179,54 L180,54 L180,53 L181,53 L181,51 L182,51 L182,49 L184,49 L184,47 L185,47 L185,45 L186,45 L186,256 L58,256 L58,255 L57,255 L57,256 L0,256 L0,222 L3,222 L3,221 L0,221 L0,220 L1,220 L1,219 L0,219 Z M109,4 L109,5 L110,5 L110,4 Z M94,10 L94,11 L95,11 L95,10 Z M92,11 L92,12 L93,12 L93,11 Z M90,12 L90,13 L91,13 L91,12 Z M88,13 L88,14 L89,14 L89,13 Z M85,16 L85,17 L86,17 L86,16 Z M81,19 L81,20 L82,20 L82,19 Z M79,21 L79,22 L80,22 L80,21 Z M78,22 L78,23 L79,23 L79,22 Z M76,24 L76,25 L77,25 L77,24 Z M74,27 L74,28 L75,28 L75,27 Z M73,28 L73,29 L74,29 L74,28 Z M70,32 L70,33 L71,33 L71,32 Z M69,34 L69,35 L70,35 L70,34 Z M68,36 L68,37 L69,37 L69,36 Z M67,37 L67,38 L68,38 L68,37 Z M66,40 L66,41 L67,41 L67,40 Z M64,44 L64,45 L65,45 L65,44 Z M63,47 L63,48 L64,48 L64,47 Z M62,51 L62,52 L63,52 L63,51 Z M61,52 L61,54 L62,54 L62,52 Z M60,75 L60,76 L61,76 L61,75 Z M61,77 L61,78 L62,78 L62,77 Z M124,98 L124,99 L125,99 L125,98 Z M67,105 L67,107 L68,107 L68,105 Z M64,117 L64,119 L65,119 L65,117 Z M50,125 L50,126 L51,126 L51,125 Z M35,130 L35,131 L36,131 L36,130 Z M33,131 L33,132 L34,132 L34,131 Z M55,137 L55,138 L56,138 L56,137 Z M106,141 L106,142 L107,142 L107,141 Z M20,142 L20,143 L21,143 L21,142 Z M50,142 L50,143 L51,143 L51,142 Z M109,142 L109,143 L110,143 L110,142 Z M19,143 L19,144 L20,144 L20,143 Z M111,143 L111,144 L112,144 L112,143 Z M115,143 L115,144 L117,144 L117,143 Z M112,144 L112,145 L114,145 L114,144 Z M117,144 L117,145 L116,145 L116,146 L115,146 L115,147 L116,147 L116,148 L117,148 L117,149 L118,149 L118,150 L120,150 L120,152 L121,152 L121,153 L122,153 L122,154 L123,154 L123,156 L124,156 L124,158 L126,158 L126,159 L127,159 L127,158 L128,158 L128,160 L127,160 L127,161 L128,161 L128,163 L129,163 L129,165 L130,165 L130,167 L131,167 L131,168 L132,168 L132,169 L133,169 L133,170 L134,170 L134,171 L135,171 L135,172 L136,172 L136,173 L138,173 L138,174 L139,174 L139,173 L140,173 L140,175 L141,175 L141,176 L143,176 L143,175 L145,175 L145,176 L147,176 L147,177 L146,177 L146,178 L147,178 L147,179 L149,179 L149,178 L151,178 L151,179 L153,179 L153,180 L155,180 L155,181 L158,181 L158,182 L160,182 L160,183 L165,183 L165,184 L169,184 L169,183 L168,183 L168,182 L169,182 L169,181 L168,181 L168,180 L167,180 L167,179 L166,179 L166,177 L165,177 L165,176 L164,176 L164,174 L163,174 L163,173 L162,173 L162,172 L161,172 L161,170 L159,170 L159,169 L160,169 L160,167 L159,167 L159,166 L158,166 L158,164 L157,164 L157,163 L156,163 L156,162 L155,162 L155,161 L154,161 L154,160 L152,160 L152,159 L151,159 L151,158 L150,158 L150,157 L149,157 L149,156 L148,156 L148,155 L146,155 L146,156 L144,156 L144,155 L140,155 L140,154 L137,154 L137,153 L136,153 L136,152 L133,152 L133,151 L134,151 L134,150 L133,150 L133,149 L130,149 L130,150 L128,150 L128,149 L125,149 L125,148 L122,148 L122,147 L121,147 L121,145 L120,145 L120,146 L118,146 L118,145 L119,145 L119,144 Z M114,145 L114,146 L115,146 L115,145 Z M17,146 L17,147 L18,147 L18,146 Z M46,146 L46,147 L47,147 L47,146 Z M124,146 L124,147 L125,147 L125,146 Z M125,147 L125,148 L126,148 L126,147 Z M129,148 L129,149 L130,149 L130,148 Z M42,151 L42,152 L43,152 L43,151 Z M136,151 L136,152 L137,152 L137,151 Z M41,152 L41,153 L42,153 L42,152 Z M139,152 L139,153 L140,153 L140,152 Z M140,153 L140,154 L142,154 L142,153 Z M144,154 L144,155 L145,155 L145,154 Z M12,155 L12,156 L13,156 L13,155 Z M115,155 L115,156 L116,156 L116,155 Z M38,157 L38,158 L39,158 L39,157 Z M116,157 L116,159 L117,159 L117,157 Z M37,158 L37,159 L38,159 L38,158 Z M93,159 L93,161 L94,161 L94,159 Z M10,161 L10,162 L11,162 L11,161 Z M29,161 L29,162 L30,162 L30,161 Z M118,162 L118,163 L119,163 L119,162 Z M27,164 L27,165 L28,165 L28,164 Z M35,164 L35,165 L36,165 L36,164 Z M119,164 L119,166 L121,166 L121,165 L120,165 L120,164 Z M75,165 L75,166 L76,166 L76,165 Z M25,167 L25,168 L26,168 L26,167 Z M74,168 L74,169 L75,169 L75,168 Z M8,169 L8,170 L9,170 L9,169 Z M58,169 L58,170 L59,170 L59,169 Z M122,169 L122,170 L123,170 L123,169 Z M33,170 L33,171 L34,171 L34,170 Z M75,170 L75,171 L76,171 L76,170 Z M99,170 L99,171 L100,171 L100,170 Z M106,170 L106,171 L107,171 L107,170 Z M124,171 L124,172 L125,172 L125,171 Z M24,172 L24,174 L25,174 L25,172 Z M28,172 L28,173 L29,173 L29,174 L30,174 L30,172 Z M125,173 L125,174 L126,174 L126,173 Z M75,174 L75,176 L76,176 L76,174 Z M6,175 L6,176 L7,176 L7,175 Z M24,175 L24,179 L25,179 L25,175 Z M144,176 L144,177 L145,177 L145,176 Z M32,177 L32,179 L33,179 L33,177 Z M73,178 L73,179 L75,179 L75,178 Z M129,178 L129,179 L130,179 L130,178 Z M149,179 L149,180 L150,180 L150,179 Z M5,180 L5,182 L6,182 L6,180 Z M152,180 L152,181 L153,181 L153,180 Z M153,181 L153,182 L154,182 L154,181 Z M54,182 L54,183 L55,183 L55,182 Z M71,182 L71,183 L72,183 L72,182 Z M131,182 L131,183 L132,183 L132,182 Z M155,182 L155,183 L156,183 L156,182 Z M5,183 L5,186 L6,186 L6,183 Z M31,183 L31,187 L32,187 L32,183 Z M174,183 L174,184 L175,184 L175,183 Z M23,184 L23,185 L24,185 L24,184 Z M133,184 L133,185 L134,185 L134,184 Z M161,184 L161,185 L162,185 L162,184 Z M58,185 L58,186 L59,186 L59,185 Z M68,185 L68,186 L69,186 L69,185 Z M172,185 L172,186 L173,186 L173,185 Z M134,186 L134,187 L135,187 L135,186 Z M135,187 L135,188 L136,188 L136,187 Z M66,188 L66,189 L67,189 L67,188 Z M136,190 L136,191 L137,191 L137,190 Z M21,191 L21,192 L22,192 L22,191 Z M65,191 L65,192 L66,192 L66,191 Z M64,192 L64,194 L65,194 L65,192 Z M115,192 L115,193 L116,193 L116,192 Z M51,194 L51,195 L52,195 L52,194 Z M63,195 L63,197 L64,197 L64,195 Z M20,196 L20,197 L21,197 L21,196 Z M4,197 L4,198 L5,198 L5,197 Z M30,197 L30,202 L31,202 L31,197 Z M62,200 L62,201 L63,201 L63,200 Z M18,201 L18,202 L19,202 L19,201 Z M61,201 L61,202 L62,202 L62,201 Z M118,201 L118,202 L119,202 L119,201 Z M47,204 L47,205 L48,205 L48,204 Z M3,205 L3,206 L4,206 L4,205 Z M60,206 L60,207 L61,207 L61,206 Z M120,206 L120,207 L121,207 L121,206 Z M59,207 L59,208 L60,208 L60,207 Z M58,209 L58,210 L59,210 L59,209 Z M121,209 L121,210 L122,210 L122,209 Z M44,210 L44,211 L45,211 L45,210 Z M2,211 L2,212 L3,212 L3,211 Z M57,211 L57,212 L58,212 L58,211 Z M29,212 L29,213 L30,213 L30,212 Z M42,213 L42,214 L43,214 L43,213 Z M51,214 L51,215 L52,215 L52,214 Z M55,215 L55,216 L56,216 L56,215 Z M1,216 L1,217 L2,217 L2,216 Z M50,216 L50,217 L51,217 L51,216 Z M54,217 L54,218 L55,218 L55,217 Z M24,220 L24,221 L25,221 L25,220 Z M48,221 L48,222 L49,222 L49,221 Z M49,222 L49,224 L50,224 L50,222 Z M51,222 L51,223 L52,223 L52,222 Z M48,225 L48,226 L49,226 L49,225 Z M47,226 L47,227 L48,227 L48,226 Z M49,226 L49,227 L50,227 L50,226 Z M17,228 L17,229 L18,229 L18,228 Z M46,228 L46,229 L47,229 L47,228 Z M48,228 L48,229 L49,229 L49,228 Z M44,229 L44,230 L43,230 L43,231 L44,231 L44,232 L45,232 L45,231 L46,231 L46,230 L45,230 L45,229 Z M27,231 L27,232 L28,232 L28,231 Z M46,231 L46,232 L47,232 L47,231 Z M43,232 L43,233 L41,233 L41,234 L44,234 L44,232 Z M45,233 L45,234 L46,234 L46,233 Z M40,234 L40,236 L42,236 L42,235 L41,235 L41,234 Z M44,234 L44,235 L45,235 L45,234 Z M43,235 L43,236 L44,236 L44,235 Z M39,237 L39,238 L40,238 L40,237 Z M42,237 L42,238 L43,238 L43,237 Z M16,239 L16,240 L17,240 L17,239 Z M38,239 L38,241 L39,241 L39,239 Z M41,239 L41,240 L42,240 L42,239 Z M5,241 L5,242 L6,242 L6,241 Z " fill="#000000" transform="translate(0,0)"/>
<path d="M0,0 L34,0 L34,35 L33,35 L33,25 L32,25 L32,22 L31,22 L31,20 L30,20 L30,18 L29,18 L29,15 L28,15 L28,13 L27,13 L27,12 L26,12 L26,10 L24,10 L24,9 L23,9 L23,8 L22,8 L22,7 L21,7 L21,6 L20,6 L20,5 L18,5 L18,4 L15,4 L15,3 L12,3 L12,2 L9,2 L9,1 L0,1 Z " fill="#000000" transform="translate(152,0)"/>
<path d="M0,0 L1,0 L1,2 L0,2 L0,4 L-1,4 L-1,5 L-2,5 L-2,6 L-3,6 L-3,8 L-4,8 L-4,9 L-5,9 L-5,10 L-6,10 L-6,12 L-7,12 L-7,14 L-9,14 L-9,16 L-10,16 L-10,17 L-11,17 L-11,18 L-12,18 L-12,14 L-11,14 L-11,13 L-10,13 L-10,11 L-9,11 L-9,10 L-8,10 L-8,9 L-7,9 L-7,7 L-6,7 L-6,6 L-5,6 L-5,4 L-4,4 L-4,3 L-1,3 L-1,1 L0,1 Z M-9,12 L-9,13 L-8,13 L-8,12 Z " fill="#000000" transform="translate(98,89)"/>
</svg>
